<?xml version="1.0" encoding="UTF-8"?>
<svg width="800" height="600" viewBox="0 0 800 600" xmlns="http://www.w3.org/2000/svg">
  <defs>
    <linearGradient id="skinTone" x1="0%" y1="0%" x2="100%" y2="0%">
      <stop offset="0%" style="stop-color:#e8c4a3;stop-opacity:1" />
      <stop offset="100%" style="stop-color:#d4b08c;stop-opacity:1" />
    </linearGradient>
    <linearGradient id="clothingTone" x1="0%" y1="0%" x2="100%" y2="0%">
      <stop offset="0%" style="stop-color:#8b5e3c;stop-opacity:1" />
      <stop offset="100%" style="stop-color:#6b4423;stop-opacity:1" />
    </linearGradient>
  </defs>
  
  <!-- Background -->
  <rect width="800" height="600" fill="#ffffff"/>
  
  <!-- Woman figure -->
  <!-- Head and hair -->
  <path d="M400 180 C380 180 365 195 365 215 C365 235 380 250 400 250 C420 250 435 235 435 215 C435 195 420 180 400 180" fill="url(#skinTone)"/>
  <path d="M435 215 C435 195 420 180 400 180 C380 180 365 195 365 215 L365 200 C365 180 380 165 400 165 C420 165 435 180 435 200 Z" fill="#5c3c20"/>
  
  <!-- Body -->
  <path d="M380 250 L380 400 C380 430 420 430 420 400 L420 250" fill="url(#clothingTone)"/>
  
  <!-- Arms -->
  <path d="M380 270 L320 350 C310 360 300 380 310 390 C320 400 340 390 350 380 L420 300" fill="url(#skinTone)"/>
  <path d="M420 270 L480 350 C490 360 500 380 490 390 C480 400 460 390 450 380 L380 300" fill="url(#skinTone)"/>
  
  <!-- Resistance band -->
  <path d="M310 390 C320 400 480 400 490 390" stroke="#8b5e3c" stroke-width="8" fill="none"/>
  
  <!-- Legs -->
  <path d="M380 400 L360 500" stroke="url(#clothingTone)" stroke-width="40" stroke-linecap="round"/>
  <path d="M420 400 L440 500" stroke="url(#clothingTone)" stroke-width="40" stroke-linecap="round"/>
  
  <!-- Floor shadow -->
  <ellipse cx="400" cy="550" rx="150" ry="10" fill="#f0f0f0"/>
</svg> 