<?xml version="1.0" encoding="UTF-8"?>
<svg width="800" height="600" viewBox="0 0 800 600" xmlns="http://www.w3.org/2000/svg">
  <defs>
    <linearGradient id="bgGradient" x1="0%" y1="0%" x2="100%" y2="100%">
      <stop offset="0%" style="stop-color:#f4e3e8;stop-opacity:1" />
      <stop offset="100%" style="stop-color:#e4d3d8;stop-opacity:1" />
    </linearGradient>
    <linearGradient id="personGradient" x1="0%" y1="0%" x2="100%" y2="0%">
      <stop offset="0%" style="stop-color:#8b8b8b;stop-opacity:1" />
      <stop offset="100%" style="stop-color:#6b6b6b;stop-opacity:1" />
    </linearGradient>
  </defs>
  
  <!-- Background -->
  <rect width="800" height="600" fill="url(#bgGradient)"/>
  
  <!-- Reformer Machine 1 -->
  <rect x="100" y="300" width="300" height="20" fill="#d4d4d4" rx="2"/>
  <rect x="100" y="320" width="20" height="100" fill="#b4b4b4"/>
  <rect x="380" y="320" width="20" height="100" fill="#b4b4b4"/>
  
  <!-- Reformer Machine 2 -->
  <rect x="450" y="300" width="300" height="20" fill="#d4d4d4" rx="2"/>
  <rect x="450" y="320" width="20" height="100" fill="#b4b4b4"/>
  <rect x="730" y="320" width="20" height="100" fill="#b4b4b4"/>
  
  <!-- Person 1 -->
  <circle cx="250" cy="250" r="30" fill="url(#personGradient)"/>
  <path d="M250 280 L250 380" stroke="url(#personGradient)" stroke-width="8"/>
  <path d="M250 320 L200 370" stroke="url(#personGradient)" stroke-width="8"/>
  <path d="M250 320 L300 370" stroke="url(#personGradient)" stroke-width="8"/>
  <path d="M250 380 L220 450" stroke="url(#personGradient)" stroke-width="8"/>
  <path d="M250 380 L280 450" stroke="url(#personGradient)" stroke-width="8"/>
  
  <!-- Person 2 -->
  <circle cx="600" cy="250" r="30" fill="url(#personGradient)"/>
  <path d="M600 280 L600 380" stroke="url(#personGradient)" stroke-width="8"/>
  <path d="M600 320 L550 370" stroke="url(#personGradient)" stroke-width="8"/>
  <path d="M600 320 L650 370" stroke="url(#personGradient)" stroke-width="8"/>
  <path d="M600 380 L570 450" stroke="url(#personGradient)" stroke-width="8"/>
  <path d="M600 380 L630 450" stroke="url(#personGradient)" stroke-width="8"/>
  
  <!-- Instructor Silhouette -->
  <circle cx="425" cy="200" r="25" fill="url(#personGradient)" opacity="0.7"/>
  <path d="M425 225 L425 300" stroke="url(#personGradient)" stroke-width="6" opacity="0.7"/>
  
  <!-- Decorative Elements -->
  <circle cx="150" cy="150" r="50" fill="#e4d3d8" opacity="0.5"/>
  <circle cx="650" cy="450" r="50" fill="#e4d3d8" opacity="0.5"/>
</svg> 